<svg width="60" height="60" viewBox="0 0 60 60">
  <defs>
    <linearGradient id="linear-gradient" x1="0.218" x2="0.805" y2="0.874" gradientUnits="objectBoundingBox">
      <stop offset="0" stop-color="#4d29cf"/>
      <stop offset="1" stop-color="#b32a90"/>
    </linearGradient>
    <clipPath id="clip-path">
      <rect id="Rectangle_149597" data-name="Rectangle 149597" width="28.295" height="22.436" transform="translate(0 0)" fill="#fff"/>
    </clipPath>
  </defs>
  <g id="Group_189528" data-name="Group 189528" transform="translate(11426 -901.001)">
    <circle id="Ellipse_8456" data-name="Ellipse 8456" cx="30" cy="30" r="30" transform="translate(-11426 901.001)" fill="url(#linear-gradient)"/>
    <g id="Group_187461" data-name="Group 187461" transform="translate(-11409.422 919.897)" clip-path="url(#clip-path)">
      <path id="Path_169095" data-name="Path 169095" d="M27.5,22.436l.8-1.315Q21.52,17.5,21.52,14.347a1.865,1.865,0,0,1,.558-1.335,8.283,8.283,0,0,1,1.993-1.336A8.839,8.839,0,0,0,27.2,9.3a5.079,5.079,0,0,0,.937-3.128,5.964,5.964,0,0,0-1.793-4.383A5.87,5.87,0,0,0,22.038,0a5.5,5.5,0,0,0-4.563,2.232A9.216,9.216,0,0,0,15.741,8.05a13.337,13.337,0,0,0,1.137,5.419,14.428,14.428,0,0,0,3.367,4.7A23.639,23.639,0,0,0,27.5,22.436m-15.742,0,.8-1.315q-6.774-3.587-6.774-6.774,0-1.355,2.55-2.671A9.423,9.423,0,0,0,11.5,9.285a5.044,5.044,0,0,0,.9-3.109A5.949,5.949,0,0,0,10.58,1.813,5.905,5.905,0,0,0,6.257,0,5.461,5.461,0,0,0,1.734,2.232,9.212,9.212,0,0,0,0,8.05,13.452,13.452,0,0,0,4.463,18.172a17.714,17.714,0,0,0,2.969,2.251,34.177,34.177,0,0,0,4.324,2.012" transform="translate(0 0)" fill="#fff"/>
    </g>
  </g>
</svg>
