<svg width="64" height="64" viewBox="0 0 64 64">
  <defs>
    <linearGradient id="linear-gradient" x1="0.196" y1="0.173" x2="0.736" y2="0.834" gradientUnits="objectBoundingBox">
      <stop offset="0" stop-color="#4d29cf"/>
      <stop offset="1" stop-color="#b32a90"/>
    </linearGradient>
  </defs>
  <path id="seamless_ui_icon" d="M32.588,64A32.375,32.375,0,0,1,.21,35.619a31.507,31.507,0,0,1,5.782-22.1A32.615,32.615,0,0,1,25.283.82,33.382,33.382,0,0,1,32.621,0,33.026,33.026,0,0,1,51.282,5.772a32.309,32.309,0,0,1,7.171,6.715,31.755,31.755,0,0,1,4.884,8.82,11.08,11.08,0,0,1-1.446,10.275,11.493,11.493,0,0,1-9.308,4.726H43.726A7.33,7.33,0,0,0,36.4,42.393a7.187,7.187,0,0,0,5,8.011l.071.024a6.633,6.633,0,0,1,4.37,5.754,6.088,6.088,0,0,1-1.011,4.126,6.227,6.227,0,0,1-3.514,2.512A32.222,32.222,0,0,1,32.674,64ZM26.166,4.724A28.044,28.044,0,0,0,4.183,35.16,28.375,28.375,0,0,0,32.593,60h.081a28.165,28.165,0,0,0,7.573-1.035h.007a2.146,2.146,0,0,0,1.608-2.338l-.015-.141A2.626,2.626,0,0,0,40.131,54.2a11.391,11.391,0,0,1-6.149-4.807,11.1,11.1,0,0,1,2.357-14.414,11.547,11.547,0,0,1,7.387-2.667h8.857a7.49,7.49,0,0,0,6.065-3.068,7.092,7.092,0,0,0,.928-6.572A28.613,28.613,0,0,0,32.621,4,29.265,29.265,0,0,0,26.166,4.724ZM15.191,43.04A5.51,5.51,0,1,1,20.7,48.546,5.515,5.515,0,0,1,15.191,43.04Zm4,0a1.509,1.509,0,1,0,1.51-1.511A1.512,1.512,0,0,0,19.192,43.04ZM12.268,25.733a9.017,9.017,0,1,1,9.018,9.017A9.027,9.027,0,0,1,12.268,25.733Zm4,0a5.017,5.017,0,1,0,5.017-5.016A5.022,5.022,0,0,0,16.269,25.733Zm13.113-6.268a9.018,9.018,0,1,1,9.02,9.017A9.029,9.029,0,0,1,29.382,19.466Zm4,0A5.018,5.018,0,1,0,38.4,14.45,5.025,5.025,0,0,0,33.383,19.466Z" transform="translate(0)" fill="url(#linear-gradient)"/>
</svg>
