<svg width="55.115" height="80.001" viewBox="0 0 55.115 80.001">
  <g id="Group_189455" data-name="Group 189455" transform="translate(-9.985 0)">
    <g id="Group_189455-2" data-name="Group 189455" transform="translate(9.985 0)">
      <path id="Union_43" data-name="Union 43" d="M8373.729-791.233a1.107,1.107,0,0,1-.414-.743,3.525,3.525,0,0,0-1.9-2.465,22.731,22.731,0,0,0-5.5-2.3c-2.833-.935-7.4-2.5-12.1-4.266s-9.334-3.567-11.967-4.7a23.8,23.8,0,0,1-8.665-6.2,9.161,9.161,0,0,1-1.966-7.932,5.36,5.36,0,0,1,2.064-3.334,4.332,4.332,0,0,1,4.334,0,15.5,15.5,0,0,1,1.932,1.033l.568.4a5.73,5.73,0,0,1,2.1-5.432,4.633,4.633,0,0,1,5.2.333,8.213,8.213,0,0,1,2.067,2.2,10.8,10.8,0,0,1,.7,1.366,7.679,7.679,0,0,1,2.267-3.332,4.06,4.06,0,0,1,2.467-.966c1.4-.2,2.833.665,3.334,3.132a16.581,16.581,0,0,0,1.3,4.666,21.328,21.328,0,0,0,2.5,4.3,1.233,1.233,0,0,1,.372.884,1.228,1.228,0,0,1-.372.882,1.263,1.263,0,0,1-1.766,0,18.728,18.728,0,0,1-3.934-4.466,17.91,17.91,0,0,1-2.233-5.232,4.754,4.754,0,0,0-1.233,1.566l-.867,2.8c.434,1.166.933,2.4,1.467,3.565a3.385,3.385,0,0,0,.366.566l1.6.467a68.4,68.4,0,0,0,10.366,2,.326.326,0,0,0,.332-.333,6.441,6.441,0,0,0,.636-1.067,24.065,24.065,0,0,1,2.966-5.5,4.867,4.867,0,0,1,3.066-1.667,3.965,3.965,0,0,1,4.564,1.8,9.025,9.025,0,0,1,.668,4.6,6.025,6.025,0,0,0,0,2.966,7.491,7.491,0,0,0,1.731,1.833c1.867,1.433,4.2,2.534,5.9,3.967a1.228,1.228,0,0,1,.2,1.665,1.266,1.266,0,0,1-1.766.168c-1.734-1.334-4.1-2.334-5.965-3.734a9.653,9.653,0,0,1-2.469-2.467,5.053,5.053,0,0,1-.7-2.633,30.593,30.593,0,0,0-.166-4.333c-.166-.631-.532-.966-1.565-.8s-1.5,1.267-2,2.368a42.768,42.768,0,0,1-2.1,4.6,3.934,3.934,0,0,1-3.533,2.1,69.847,69.847,0,0,1-11.132-1.768,56.408,56.408,0,0,1-10.833-3.565c-2.3-1.067-4.3-3.033-6.465-4.4a11.911,11.911,0,0,0-1.434-.768h-.233a5.228,5.228,0,0,0-.333.6,5.3,5.3,0,0,0,1.1,4.466,20,20,0,0,0,7.133,5.3c2.534,1.2,7.133,3.2,11.6,5.1s9,3.767,11.734,4.767a20.944,20.944,0,0,1,6.933,3.565,5.07,5.07,0,0,1,1.8,3.334,1.135,1.135,0,0,1-.935,1.267,1.062,1.062,0,0,1-.14.009A1.1,1.1,0,0,1,8373.729-791.233Zm-30.21-32.271a3.021,3.021,0,0,0-.634,1.9l.434,2.2a20.211,20.211,0,0,0,2.267,1.467,32.342,32.342,0,0,0,4,1.667c-.732-1.332-1.4-2.433-2-3.334s-1.132-1.9-1.731-2.8a4.621,4.621,0,0,0-1.034-1.1,1.405,1.405,0,0,0-.764-.288A.617.617,0,0,0,8343.519-823.5Zm15.966-5.1a10.852,10.852,0,0,1-1.168-2.334c-.5-1.3-.865-2.732-1.3-4l-2.033-.7a31.574,31.574,0,0,1-3.334.934,16,16,0,0,1-3.134.366,3,3,0,0,1-2.23-1.166,22.292,22.292,0,0,1-1.5-2.633,27.445,27.445,0,0,1-1.734-2.4,2.5,2.5,0,0,1,0-2.1,12.559,12.559,0,0,1,1.467-2.168,37.112,37.112,0,0,1,3.066-3.332v-2.6c-.6-.568-1.532-1.467-2.4-2.435a16.7,16.7,0,0,1-1.9-2.532,2.8,2.8,0,0,1,0-2.166,24.38,24.38,0,0,1,1.6-2.6,21.226,21.226,0,0,1,1.3-2.633,2.1,2.1,0,0,1,1.5-.9,13.268,13.268,0,0,1,2.532.2c1.534.265,3.134.766,4.6,1.1l2.531-1.132c.468-1.332.867-2.867,1.468-4.266a10.541,10.541,0,0,1,1.132-2.2,1.567,1.567,0,0,1,1.233-.7,24.356,24.356,0,0,1,2.9.3,17.437,17.437,0,0,1,2.966,0,2.1,2.1,0,0,1,1.467.867,13.353,13.353,0,0,1,1.168,2.8,26.23,26.23,0,0,1,.8,3.332l3,1.568c1.434-.3,3.033-.8,4.6-1.067a12.574,12.574,0,0,1,2.467-.2,1.834,1.834,0,0,1,1.3.8,23.535,23.535,0,0,1,1.2,2.4,22.2,22.2,0,0,1,1.534,2.566,2.265,2.265,0,0,1,0,1.934,14.473,14.473,0,0,1-1.8,2.467c-.933,1.067-1.935,2-2.5,2.532l-.2,2.4c.969,1.065,2.135,2.166,3.067,3.332a10.849,10.849,0,0,1,1.467,2.1,2.165,2.165,0,0,1,0,1.833c-.335.7-1.634,2.166-1.634,2.467a24.019,24.019,0,0,1-1.467,2.667,2.66,2.66,0,0,1-1.966,1.065,13.533,13.533,0,0,1-3.134-.333c-1.3-.267-2.565-.633-3.332-.867l-1.6.735a31.679,31.679,0,0,1-.8,3.332,14.566,14.566,0,0,1-1.23,2.9,2.914,2.914,0,0,1-2.1,1.267,18.237,18.237,0,0,1-3.033,0,21.192,21.192,0,0,1-2.968.265A2.49,2.49,0,0,1,8359.484-828.6Zm-3.768-11.3,3.7,1.3a2.272,2.272,0,0,1,1.3,1.3c.432,1.267.831,2.8,1.3,4.235.2.5.366,1,.6,1.465a14.863,14.863,0,0,0,1.534-.366,6.256,6.256,0,0,1,2.233-.267l.4-1c.566-1.8.966-3.633.966-3.633a2,2,0,0,1,1.1-1.5l3.334-1.4a1.788,1.788,0,0,1,1.434,0,35.887,35.887,0,0,0,3.633,1.1c3.266.734,1.565-.067,2.7-1.667a8.058,8.058,0,0,1,.966-1.732,12.147,12.147,0,0,0-.8-1.033c-.966-1.2-2.1-2.3-2.966-3.334a1.794,1.794,0,0,1-.368-1.233l.5-3.8a1.53,1.53,0,0,1,.6-1.1,31.937,31.937,0,0,0,2.766-2.6,11.485,11.485,0,0,0,1.067-1.265c-.566-.335-1-2.067-1.1-2.267s-.568-1.334-.867-1.934h-1.166c-1.667.234-3.467.766-5,1a1.331,1.331,0,0,1-.867,0l-3.666-2.1a1.307,1.307,0,0,1-.532-.867,32.46,32.46,0,0,0-1.1-3.6,12.549,12.549,0,0,0-.734-1.768c-.434.5-2.332,0-2.7,0a7.618,7.618,0,0,1-2.23,0,2.859,2.859,0,0,0-.368.968c-.6,1.566-1,3.4-1.465,4.9a1.576,1.576,0,0,1-.769.833l-3.531,1.7a1.68,1.68,0,0,1-.9,0c-1.365-.234-2.866-.633-4.367-.9a13.67,13.67,0,0,0-1.631-.2l-.769,1.8c-.132.265-.4,1.833-.932,2.2a11.915,11.915,0,0,0,.867,1.033,32.356,32.356,0,0,0,2.8,2.566,2.131,2.131,0,0,1,.665,1.4l.233,4.2a1.863,1.863,0,0,1-.5,1.334c-.966,1.2-2.3,2.467-3.333,3.8l-.268.335c.368.566.636,1.4.836,1.6s.2,1.233.565,1.8a11.819,11.819,0,0,0,1.8-.267,31.4,31.4,0,0,0,3.567-1.033,2.043,2.043,0,0,1,.732-.136A2.043,2.043,0,0,1,8355.717-839.9Zm-.233-6.2a8.07,8.07,0,0,1-.366-8,7.1,7.1,0,0,1,2.833-2.867,15.456,15.456,0,0,1,4.765-1.6,7.426,7.426,0,0,1,7.532,3.334,7.958,7.958,0,0,1,.7,7.764,7.092,7.092,0,0,1-2,2.467,9.334,9.334,0,0,1-2.633,1.467,1.266,1.266,0,0,1-1.6-.747,1.266,1.266,0,0,1,.694-1.619,5.772,5.772,0,0,0,1.7-1.168,3.916,3.916,0,0,0,1-1.566,4.6,4.6,0,0,0-.935-4.365,3.5,3.5,0,0,0-3.6-1.334,15.533,15.533,0,0,0-3.2.934,3.664,3.664,0,0,0-1.867,1.366,4.539,4.539,0,0,0-.366,4.365,4.3,4.3,0,0,0,4.1,2.368,1.1,1.1,0,0,1,1.2.966,1.112,1.112,0,0,1-.168.907,1.108,1.108,0,0,1-.8.459,6.919,6.919,0,0,1-1.158.1A6.9,6.9,0,0,1,8355.483-846.1Z" transform="translate(-8331 871)" fill="#e73e85"/>
    </g>
  </g>
</svg>
