<svg width="80" height="80.039" viewBox="0 0 80 80.039">
  <g id="Group_189453" data-name="Group 189453" transform="translate(-674 -6062)">
    <path id="Path_180833" data-name="Path 180833" d="M49.287,19.01a45.167,45.167,0,0,0-8.333.967c0-1.633,0-3.933,0-5.967a11.567,11.567,0,0,0-.767-3.867,4.533,4.533,0,0,0-5.167-2.6,5.667,5.667,0,0,0-4.267,3.333A38.933,38.933,0,0,1,25.32,20.81a11.567,11.567,0,0,1-4.633,4.3,1.6,1.6,0,0,0-.233-.533,4.833,4.833,0,0,0-2.767-1.933,11.167,11.167,0,0,0-4.167-.433.967.967,0,0,0-.933,1.033,1,1,0,0,0,.933.967,9.133,9.133,0,0,1,2.8.6,2.933,2.933,0,0,1,1.667,1.2,45.9,45.9,0,0,1,.333,7.333,63.2,63.2,0,0,0,.267,7.133,30.811,30.811,0,0,1,.167,4.7,11.7,11.7,0,0,0,0,1.533h0a5.267,5.267,0,0,1-1.767.667,6.367,6.367,0,0,1-2.733,0,1.138,1.138,0,0,0-.7,2.167,9.3,9.3,0,0,0,4.567.233,6.467,6.467,0,0,0,3.133-1.333,4.367,4.367,0,0,0,.667-1.767,1.2,1.2,0,0,0,.7,0,6.833,6.833,0,0,1,3,.633c2.6,1,5.533,2.733,7.567,3.7a34.333,34.333,0,0,0,14.567,1.5,17.6,17.6,0,0,0,9.8-3.333c2.567-2.367,3.9-8.2,3.7-14.133a23.333,23.333,0,0,0-4.4-13.567,10.5,10.5,0,0,0-7.567-2.467Zm5.767,28a17.533,17.533,0,0,1-10,2.733,28.567,28.567,0,0,1-10.933-1c-2.133-.933-5.2-2.6-7.867-3.533a9.133,9.133,0,0,0-4.1-.633h0a80.731,80.731,0,0,0,.2-8.4,48.617,48.617,0,0,0-.4-5.6c-.2-1.7-.5-2.433-.7-3.567a14.267,14.267,0,0,0,5.867-4.8,44.267,44.267,0,0,0,6.133-10.233,2.7,2.7,0,0,1,2.133-1.533,1.633,1.633,0,0,1,1.833.967,33.533,33.533,0,0,1,.233,9.5,4,4,0,0,0,.367,2,1.767,1.767,0,0,0,1.667.9,9.667,9.667,0,0,0,1.3,0,42.267,42.267,0,0,1,10-.8,5.2,5.2,0,0,1,3.333,1.133,20,20,0,0,1,3.333,11.5C57.587,40.243,57.054,45.043,55.054,47.01Z" transform="translate(677.146 6063.857)" fill="#e73e85" fill-rule="evenodd"/>
    <path id="Path_180834" data-name="Path 180834" d="M79.433,9.333a32.733,32.733,0,0,0-.467-4.9A2.767,2.767,0,0,0,78.133,2.9a3.767,3.767,0,0,0-1.467-.667A57.567,57.567,0,0,0,69.6,1.367C60.4.6,45.3,0,39.233,0c-1.8,0-15.467,0-25.567.333a75.733,75.733,0,0,0-8.9.833A6.667,6.667,0,0,0,1.9,2.233,2.933,2.933,0,0,0,1.133,3.5a31.3,31.3,0,0,0-.7,5.667C0,16.9,0,30,0,32.9S.433,48.3.867,55.867a35.08,35.08,0,0,0,.4,5.233,2.7,2.7,0,0,0,.467,1.267,6.2,6.2,0,0,0,3.333,1.367,35.733,35.733,0,0,0,7.167,0C14.8,63.5,17,63.3,18.9,63.3c3.333,0,6.333-.567,4.767,7.433a16.3,16.3,0,0,1-3.333,7.333A1.267,1.267,0,0,0,21.5,80.033a16.667,16.667,0,0,0,3.867-.5,18.667,18.667,0,0,0,8.967-4.367A31.5,31.5,0,0,0,37.667,70.7c1.667-2.633,2.667-5.067,3.6-6.4.3,0,1.1-.233,1.9-.233,5.5,0,18.4.567,23,.933a53.769,53.769,0,0,0,7.3,0,6.4,6.4,0,0,0,3.9-1.333,17.667,17.667,0,0,0,1.6-7.433C80,47.567,80,32.867,80,30S79.8,15.867,79.433,9.333ZM76.1,52.867a62.667,62.667,0,0,1-.567,7.6,4.111,4.111,0,0,1-.267,1.033,2.533,2.533,0,0,1-.833.2,22.032,22.032,0,0,1-2.767.233,45.3,45.3,0,0,1-4.867,0c-4.033-.233-14.367-.6-20.667-.567a38.563,38.563,0,0,0-4.833.2,2.1,2.1,0,0,0-1.333.6C38.9,63.4,37.833,66.3,35.9,69.433a24.4,24.4,0,0,1-3.1,3.9,16.867,16.867,0,0,1-9.1,4.133,20.167,20.167,0,0,0,2.533-8.233c.8-8.867-4.467-8.333-7.1-8.367a48.372,48.372,0,0,0-6.9.367,37.435,37.435,0,0,1-5.667,0,5.433,5.433,0,0,1-2.9-.733L3,32.9c0-2.367,0-10.533.367-17.667C3.867,2.533,4.2,4.633,6,4.367,8.667,4,12.9,3.833,17.433,3.733c9.4-.2,20.2,0,21.767,0,4.533,0,14.2.4,22.6.9,4.8.3,9.167.633,11.933.967l1.567.267h0a11.3,11.3,0,0,1,0,1.167c.533,5.667.767,19.233.733,22.933.167,2.533.4,14.2.1,22.9Z" transform="translate(674 6062)" fill="#e73e85" fill-rule="evenodd"/>
  </g>
</svg>
